<?xml version="1.0" standalone="no"?><!DOCTYPE svg PUBLIC "-//W3C//DTD SVG 1.1//EN" "http://www.w3.org/Graphics/SVG/1.1/DTD/svg11.dtd"><svg t="1587000989583" class="icon" viewBox="0 0 1024 1024" version="1.1" xmlns="http://www.w3.org/2000/svg" p-id="12561" xmlns:xlink="http://www.w3.org/1999/xlink" width="200" height="200"><defs><style type="text/css"></style></defs><path d="M218.7264 0h43.8784c108.1856 8.8576 206.7968 96.6656 220.416 205.6192 5.7344 67.8912 4.4544 136.2432 2.2016 204.288 0.3584 37.888-31.8464 72.6016-69.6832 74.8032-68.6592 3.2768-137.5744 3.7376-206.1312-1.3824C100.6592 471.6544 11.1616 375.5008 0 267.8784V216.2688C12.3904 105.2672 107.8272 11.4688 218.7264 0m-11.264 54.9888C116.8896 70.4512 45.9776 159.1296 51.5072 250.9824c1.9968 88.7808 74.8032 170.24 163.1232 181.0944 63.3856 5.5808 127.1296 3.1232 190.6688 2.4576 13.4656 0.1024 28.8768-9.5232 28.16-24.4224 3.072-64.9728 3.584-130.2528-1.28-195.1744-11.5712-103.936-123.0336-182.016-224.7168-159.9488zM756.3264 0h44.4416c113.6128 8.8576 211.3536 105.7792 223.232 218.8288v43.7248c-9.0624 108.1344-96.8192 206.4896-205.7216 220.2624-67.8912 5.9904-136.192 4.7616-204.2368 2.3552-28.5184 0.1536-55.6544-17.3568-68.1472-42.8032-11.0592-21.0432-7.1168-45.5168-8.2432-68.3008-1.536-75.8272-9.472-155.136 19.4048-227.2768C590.0288 65.9968 670.8736 10.8032 756.3264 0m-10.9568 54.8864c-81.5616 14.336-149.76 87.1424-155.2384 170.3424-2.3552 59.8528-1.5872 119.7568-0.9728 179.6608-0.6144 13.824 9.5744 29.3888 24.6784 28.7232 65.0752 2.6624 130.4576 3.6864 195.4816-1.5872 104.448-12.0832 183.0912-124.7232 158.976-227.0208-17.664-99.0208-124.5696-170.9056-222.9248-150.1184zM0 759.6032c8.3968-111.2064 102.3488-211.3536 214.5792-220.416 68.5568-3.7888 137.3696-4.9152 205.8752 0.2048 25.4464 1.28 47.2576 19.712 56.9856 42.6496 15.6672 32.6144 6.912 69.5296 8.96 104.2432 1.024 71.7312 6.1952 149.1456-31.5904 213.4528-39.1168 71.8848-117.2992 116.1216-197.376 124.2624h-24.576C117.4016 1018.7264 14.2848 924.0064 0 809.1648v-49.5616m225.8944-169.6768c-89.9072 4.9152-167.2192 83.4048-173.7216 172.5952-7.8848 69.7856 29.1328 140.288 87.3472 178.1248 34.0992 22.8352 75.9296 32.7168 116.6848 30.4128 87.6032-5.7856 168.2944-78.336 176.384-166.9632 4.3008-64.7168 4.2496-129.792 0.512-194.5088-2.7648-20.6336-27.904-21.7088-44.0832-21.76-54.3744 1.6896-108.9024-3.1232-163.1232 2.0992zM537.9584 614.0416c-0.6144-38.5024 32.3072-74.4448 71.0144-75.776 68.4544-2.6624 137.1648-3.84 205.5168 1.7408 110.5408 11.1616 200.2432 111.104 209.5104 220.2112v40.3456c-9.728 111.2064-103.168 209.9712-215.1424 220.5184-122.9312 17.92-250.5216-76.0832-267.5712-199.5776-7.6288-68.864-5.376-138.3424-3.328-207.4624m67.5328-22.8864c-6.5024 4.2496-14.7968 9.9328-14.6432 18.688-3.4304 47.4112-2.9696 95.0272-1.7408 142.5408 0.768 25.4464-0.7168 51.4048 5.9904 76.2368 19.7632 77.4144 92.6208 138.0864 172.5952 142.1824 70.2976 6.144 140.288-32.768 176.8448-92.2112 20.5824-32.8704 29.2864-72.3456 27.5456-110.8992-5.3248-91.9552-85.1968-175.5648-178.5344-178.3296-62.6176-1.6896-125.5424-4.3008-188.0576 1.792z" p-id="12562" fill="#00a5f9"></path></svg>