<?xml version="1.0" standalone="no"?><!DOCTYPE svg PUBLIC "-//W3C//DTD SVG 1.1//EN" "http://www.w3.org/Graphics/SVG/1.1/DTD/svg11.dtd"><svg t="1587000878197" class="icon" viewBox="0 0 1024 1024" version="1.1" xmlns="http://www.w3.org/2000/svg" p-id="10625" xmlns:xlink="http://www.w3.org/1999/xlink" width="200" height="200"><defs><style type="text/css"></style></defs><path d="M510.318868 571.691987c151.330927 0 274.075346-122.746236 274.075346-274.075346S661.647978 24.380952 510.318868 24.380952 236.243523 147.127189 236.243523 297.616641s122.744419 274.075346 274.075345 274.075346z m0-475.849309c110.97468 0 201.773963 90.797466 201.773963 201.773963s-90.799283 201.772146-201.773963 201.772146-201.773963-90.797466-201.773963-201.773964 90.797466-201.772146 201.773963-201.772145zM36.150691 999.619048h951.698618c20.177215 0 36.150691-15.973477 36.150691-36.150692 0-189.16275-153.851715-343.85594-343.85594-343.855939H343.85594C154.69319 619.612417 0 773.464132 0 963.468356c0 20.177215 15.973477 36.150691 36.150691 36.150692z m307.705249-307.705249h336.28812c137.878239 0 251.375525 102.569022 269.031951 235.402049H74.823989c17.654608-131.991552 131.153712-235.402048 269.031951-235.402049z" p-id="10626" fill="#00a5f9"></path></svg>